<svg width="83" height="83" viewBox="0 0 83 83" fill="none" xmlns="http://www.w3.org/2000/svg">
<circle cx="41.5" cy="41.5" r="41.5" fill="white"/>
<path fill-rule="evenodd" clip-rule="evenodd" d="M34.3768 26.3333C30.855 26.3333 28 29.1883 28 32.7102V44.6667V44.6667V55.6667H46.3333V44.6667V44.6667V38.2899C46.3333 31.6865 40.9802 26.3333 34.3768 26.3333ZM46.3333 55.6667V74C36.2081 74 28 65.7919 28 55.6667H46.3333ZM47.8611 55.6667H46.3334V74H53.9722C57.3473 74 60.0834 71.264 60.0834 67.8889C60.0834 61.1387 54.6113 55.6667 47.8611 55.6667Z" fill="#69AA70"/>
<circle cx="37.1667" cy="17.1667" r="9.16667" fill="#69AA70"/>
<circle cx="33.9584" cy="14.875" r="2.29167" fill="white"/>
<circle cx="33.0417" cy="14.875" r="1.375" fill="black"/>
</svg>
