<!--?xml version="1.0" encoding="utf-8"?-->
<!-- Generator: Adobe Illustrator 18.0.0, SVG Export Plug-In . SVG Version: 6.00 Build 0)  -->

<svg version="1.1" id="_x31_0" xmlns="http://www.w3.org/2000/svg" xmlns:xlink="http://www.w3.org/1999/xlink" x="0px" y="0px" viewBox="0 0 512 512" style="width: 128px; height: 128px; opacity: 1;" xml:space="preserve">
<style type="text/css">
	.st0{fill:#374149;}
</style>
<g>
	<path class="st0" d="M425.797,306.941c-28.594,0-53.863,13.977-69.546,35.414l-185.114-72.125c0.774-4.641,1.27-9.371,1.27-14.23
		c0-4.856-0.496-9.586-1.27-14.227l185.117-72.125c15.68,21.434,40.95,35.414,69.543,35.414c47.61,0,86.203-38.598,86.203-86.203
		c0-47.61-38.594-86.207-86.203-86.207s-86.203,38.598-86.203,86.207c0,1.258,0.133,2.48,0.188,3.726l-190.883,74.371
		c-15.722-16.688-37.961-27.16-62.695-27.16C38.594,169.797,0,208.395,0,256c0,47.609,38.594,86.202,86.203,86.202
		c24.734,0,46.973-10.472,62.695-27.16l190.883,74.375c-0.055,1.242-0.188,2.469-0.188,3.726c0,47.61,38.594,86.203,86.203,86.203
		S512,440.754,512,393.144C512,345.536,473.406,306.941,425.797,306.941z" style="fill: rgb(75, 75, 75);"></path>
</g>
</svg>
